<svg width="41" height="43" viewBox="0 0 41 43" fill="none" xmlns="http://www.w3.org/2000/svg">
<path d="M28.532 41.9814V34.5965C28.6035 33.6866 28.4806 32.7719 28.1713 31.9131C27.8621 31.0544 27.3735 30.2713 26.7382 29.616C32.7301 28.9481 39.0273 26.6773 39.0273 16.2583C39.0268 13.594 38.002 11.032 36.1649 9.10234C37.0348 6.77142 36.9733 4.19499 35.9932 1.90824C35.9932 1.90824 33.7415 1.24036 28.532 4.73245C24.1583 3.54709 19.5479 3.54709 15.1742 4.73245C9.96471 1.24036 7.71298 1.90824 7.71298 1.90824C6.73286 4.19499 6.67135 6.77142 7.54124 9.10234C5.69048 11.0463 4.6646 13.6315 4.67887 16.3155C4.67887 26.6582 10.9761 28.929 16.968 29.6732C16.3402 30.322 15.856 31.0957 15.5469 31.9439C15.2379 32.7921 15.1109 33.696 15.1742 34.5965V41.9814M15.1742 36.2567C5.63299 39.1191 5.63299 31.4861 1.8165 30.532L15.1742 36.2567Z" stroke="white" stroke-width="2" stroke-linecap="round" stroke-linejoin="round"/>
</svg>
